<svg viewBox="0 0 801 316" fill="none"
    xmlns="http://www.w3.org/2000/svg">
    <circle cx="163" cy="134" r="76" fill="#F2698A"/>
    <path d="M121 257.5C141 251.5 214.5 196 228 173C241.5 150 111 109 111 109C111 109 101 263.5 121 257.5Z" fill="#F2698A"/>
    <circle cx="76" cy="76" r="76" transform="matrix(-1 0 0 1 152 58)" fill="#F2698A"/>
    <path d="M118 257.5C98 251.5 24.5 196 11 173C-2.5 150 128 109 128 109C128 109 138 263.5 118 257.5Z" fill="#F2698A"/>
    <path d="M103.06 192.835V108.065H134.2V192.835H103.06ZM74.515 165.155V135.745H162.745V165.155H74.515Z" fill="#1F295A"/>
    <path d="M468.402 250V58.564H517.422V250H468.402ZM559.599 250V58.564H608.619V250H559.599ZM724.068 252.322C707.556 252.322 693.108 249.226 680.724 243.034C668.512 236.67 658.966 228.07 652.086 217.234C645.378 206.226 642.024 193.756 642.024 179.824C642.024 165.892 645.292 153.508 651.828 142.672C658.536 131.664 667.738 123.15 679.434 117.13C691.13 110.938 704.288 107.842 718.908 107.842C732.668 107.842 745.224 110.68 756.576 116.356C767.928 121.86 776.958 130.03 783.666 140.866C790.374 151.702 793.728 164.86 793.728 180.34C793.728 182.06 793.642 184.038 793.47 186.274C793.298 188.51 793.126 190.574 792.954 192.466H682.272V166.666H766.896L748.32 173.89C748.492 167.526 747.288 162.022 744.708 157.378C742.3 152.734 738.86 149.122 734.388 146.542C730.088 143.962 725.014 142.672 719.166 142.672C713.318 142.672 708.158 143.962 703.686 146.542C699.386 149.122 696.032 152.82 693.624 157.636C691.216 162.28 690.012 167.784 690.012 174.148V181.63C690.012 188.51 691.388 194.444 694.14 199.432C697.064 204.42 701.192 208.29 706.524 211.042C711.856 213.622 718.22 214.912 725.616 214.912C732.496 214.912 738.344 213.966 743.16 212.074C748.148 210.01 753.05 206.914 757.866 202.786L783.666 229.618C776.958 237.014 768.702 242.69 758.898 246.646C749.094 250.43 737.484 252.322 724.068 252.322Z" fill="#1F295A"/>
    <rect x="287.5" y="70.5" width="140" height="38" fill="#1F295A" stroke="black"/>
    <rect x="287.5" y="139.5" width="140" height="38" fill="#1F295A" stroke="black"/>
    <rect x="287.5" y="211.5" width="140" height="38" fill="#1F295A" stroke="black"/>
</svg>
