<svg width="50" height="50" viewBox="0 0 239 215" fill="none"
    xmlns="http://www.w3.org/2000/svg">
    <circle cx="163" cy="91" r="76" fill="#F2698A"/>
    <path d="M121 214.5C141 208.5 214.5 153 228 130C241.5 107 111 66 111 66C111 66 101 220.5 121 214.5Z" fill="#F2698A"/>
    <circle r="76" transform="matrix(-1 0 0 1 76 91)" fill="#F2698A"/>
    <path d="M118 214.5C98 208.5 24.5 153 11 130C-2.5 107 128 66 128 66C128 66 138 220.5 118 214.5Z" fill="#F2698A"/>
    <path d="M103.06 149.835V65.065H134.2V149.835H103.06ZM74.515 122.155V92.745H162.745V122.155H74.515Z" fill="#1F295A"/>
</svg>
